<?xml version="1.0" encoding="UTF-8"?>
<!DOCTYPE svg PUBLIC "-//W3C//DTD SVG 1.1//EN" "http://www.w3.org/Graphics/SVG/1.1/DTD/svg11.dtd">
<svg xmlns="http://www.w3.org/2000/svg" version="1.1" width="211px" height="286px" style="shape-rendering:geometricPrecision; text-rendering:geometricPrecision; image-rendering:optimizeQuality; fill-rule:evenodd; clip-rule:evenodd" xmlns:xlink="http://www.w3.org/1999/xlink">
<g><path style="opacity:0.928" fill="#c93737" d="M 102.5,-0.5 C 104.167,-0.5 105.833,-0.5 107.5,-0.5C 107.953,0.458367 108.619,1.2917 109.5,2C 114.849,1.75699 116.849,4.09032 115.5,9C 117.852,9.57586 118.852,11.0759 118.5,13.5C 117.232,16.314 116.399,19.314 116,22.5C 114.316,24.7007 112.316,25.3673 110,24.5C 108.955,25.3734 108.122,26.3734 107.5,27.5C 105.5,27.5 103.5,27.5 101.5,27.5C 101.017,25.1299 99.8508,24.4632 98,25.5C 96.6667,24.8333 95.3333,24.1667 94,23.5C 93.5184,19.8866 92.3517,16.5533 90.5,13.5C 92.1728,10.7338 93.3395,7.73378 94,4.5C 95.8259,2.92625 97.9925,2.09291 100.5,2C 101.381,1.2917 102.047,0.458367 102.5,-0.5 Z"/></g>
<g><path style="opacity:0.97" fill="#ff5252" d="M 101.5,27.5 C 103.5,27.5 105.5,27.5 107.5,27.5C 110.323,28.9923 111.99,31.3257 112.5,34.5C 105.301,38.1878 98.4675,42.5212 92,47.5C 91.6012,47.2716 91.4346,46.9382 91.5,46.5C 94.0561,39.7195 97.3894,33.3862 101.5,27.5 Z"/></g>
<g><path style="opacity:1" fill="#ff9f9f" d="M 112.5,34.5 C 114.736,38.6446 116.736,42.978 118.5,47.5C 105.419,56.5865 92.0853,65.2532 78.5,73.5C 82.5968,64.3087 86.9301,55.3087 91.5,46.5C 91.4346,46.9382 91.6012,47.2716 92,47.5C 98.4675,42.5212 105.301,38.1878 112.5,34.5 Z"/></g>
<g><path style="opacity:0.986" fill="#ff5151" d="M 118.5,47.5 C 121.072,51.6392 123.405,55.9726 125.5,60.5C 105.5,73.5 85.5,86.5 65.5,99.5C 65.8333,98.8333 66.1667,98.1667 66.5,97.5C 66.8333,96.8333 67.1667,96.1667 67.5,95.5C 70.6588,87.849 74.3255,80.5157 78.5,73.5C 92.0853,65.2532 105.419,56.5865 118.5,47.5 Z"/></g>
<g><path style="opacity:1" fill="#fe4f4f" d="M 131.5,73.5 C 133.87,77.5861 135.87,81.9194 137.5,86.5C 124.912,95.8052 111.912,104.638 98.5,113C 90.1733,113.5 81.84,113.666 73.5,113.5C 92.8333,100.167 112.167,86.8333 131.5,73.5 Z"/></g>
<g><path style="opacity:1" fill="#fea1a0" d="M 125.5,60.5 C 127.771,64.7091 129.771,69.0424 131.5,73.5C 112.167,86.8333 92.8333,100.167 73.5,113.5C 71.1667,113.5 68.8333,113.5 66.5,113.5C 65.8333,113.5 65.1667,113.5 64.5,113.5C 61.7944,108.725 62.1278,104.059 65.5,99.5C 85.5,86.5 105.5,73.5 125.5,60.5 Z"/></g>
<g><path style="opacity:1" fill="#f79692" d="M 137.5,86.5 C 139.405,89.3037 141.071,92.3037 142.5,95.5C 142.328,96.4916 142.662,97.1583 143.5,97.5C 143.557,98.609 143.89,99.609 144.5,100.5C 138.049,104.444 131.716,108.611 125.5,113C 131.157,113.499 136.824,113.666 142.5,113.5C 117.339,114.498 92.0055,114.831 66.5,114.5C 66.5,114.167 66.5,113.833 66.5,113.5C 68.8333,113.5 71.1667,113.5 73.5,113.5C 81.84,113.666 90.1733,113.5 98.5,113C 111.912,104.638 124.912,95.8052 137.5,86.5 Z"/></g>
<g><path style="opacity:0.707" fill="#f7c847" d="M 67.5,95.5 C 67.1667,96.1667 66.8333,96.8333 66.5,97.5C 50.1633,97.3334 33.8299,97.5001 17.5,98C 14.4027,99.2734 11.7361,101.107 9.5,103.5C 11.0916,99.4158 14.0916,96.9158 18.5,96C 34.8299,95.5001 51.1633,95.3334 67.5,95.5 Z"/></g>
<g><path style="opacity:0.738" fill="#f6c43a" d="M 142.5,95.5 C 158.837,95.3334 175.17,95.5001 191.5,96C 196.313,96.9811 199.313,99.8145 200.5,104.5C 198.494,101.645 195.828,99.4785 192.5,98C 176.17,97.5001 159.837,97.3334 143.5,97.5C 142.662,97.1583 142.328,96.4916 142.5,95.5 Z"/></g>
<g><path style="opacity:1" fill="#f4ba19" d="M 66.5,97.5 C 66.1667,98.1667 65.8333,98.8333 65.5,99.5C 62.1278,104.059 61.7944,108.725 64.5,113.5C 51.8333,113.5 39.1667,113.5 26.5,113.5C 25.5036,129.658 25.1702,145.991 25.5,162.5C 19.8791,163.354 14.2124,163.687 8.5,163.5C 8.83132,192.005 8.49799,220.338 7.5,248.5C 7.33334,201.499 7.50001,154.499 8,107.5C 8.21003,105.942 8.71003,104.609 9.5,103.5C 11.7361,101.107 14.4027,99.2734 17.5,98C 33.8299,97.5001 50.1633,97.3334 66.5,97.5 Z"/></g>
<g><path style="opacity:1" fill="#f3b504" d="M 143.5,97.5 C 159.837,97.3334 176.17,97.5001 192.5,98C 195.828,99.4785 198.494,101.645 200.5,104.5C 201.499,152.33 201.832,200.33 201.5,248.5C 200.847,253.298 198.513,257.132 194.5,260C 188.621,261.41 182.621,261.91 176.5,261.5C 172.561,255.892 167.894,250.892 162.5,246.5C 162.5,246.167 162.5,245.833 162.5,245.5C 169.5,245.5 176.5,245.5 183.5,245.5C 184.499,201.336 184.832,157.003 184.5,112.5C 171.833,112.5 159.167,112.5 146.5,112.5C 148.031,108.154 147.365,104.154 144.5,100.5C 143.89,99.609 143.557,98.609 143.5,97.5 Z"/></g>
<g><path style="opacity:1" fill="#fd4b48" d="M 144.5,100.5 C 147.365,104.154 148.031,108.154 146.5,112.5C 145.833,112.5 145.5,112.833 145.5,113.5C 144.5,113.5 143.5,113.5 142.5,113.5C 136.824,113.666 131.157,113.499 125.5,113C 131.716,108.611 138.049,104.444 144.5,100.5 Z"/></g>
<g><path style="opacity:1" fill="#179f5c" d="M 183.5,114.5 C 183.5,158.167 183.5,201.833 183.5,245.5C 176.5,245.5 169.5,245.5 162.5,245.5C 162.167,245.5 161.833,245.5 161.5,245.5C 161.5,242.5 161.5,239.5 161.5,236.5C 148.5,236.5 135.5,236.5 122.5,236.5C 122.5,239.167 122.5,241.833 122.5,244.5C 90.5,244.5 58.5,244.5 26.5,244.5C 26.5,229.5 26.5,214.5 26.5,199.5C 35.3118,198.839 43.8118,196.839 52,193.5C 52.7648,193.57 53.2648,193.903 53.5,194.5C 48.0103,198.32 46.0103,203.653 47.5,210.5C 56.1667,210.5 64.8333,210.5 73.5,210.5C 94.1667,210.5 114.833,210.5 135.5,210.5C 144.5,210.5 153.5,210.5 162.5,210.5C 163.926,201.843 160.593,196.01 152.5,193C 149.904,191.864 147.237,191.031 144.5,190.5C 154.495,180.401 164.661,170.401 175,160.5C 174.948,162.911 174.615,165.244 174,167.5C 176.35,165.317 178.517,162.984 180.5,160.5C 174.548,150.894 167.882,141.894 160.5,133.5C 156.191,127.518 151.858,121.518 147.5,115.5C 159.482,114.501 171.482,114.168 183.5,114.5 Z"/></g>
<g><path style="opacity:1" fill="#389053" d="M 142.5,113.5 C 143.5,113.5 144.5,113.5 145.5,113.5C 145.833,113.5 146.167,113.5 146.5,113.5C 137.526,114.292 132.026,119.292 130,128.5C 122.467,134.851 116.3,142.184 111.5,150.5C 105.669,147.473 100.335,148.14 95.5,152.5C 85.3597,140.232 75.693,127.565 66.5,114.5C 92.0055,114.831 117.339,114.498 142.5,113.5 Z"/></g>
<g><path style="opacity:1" fill="#2c9556" d="M 146.5,113.5 C 159.011,113.171 171.345,113.505 183.5,114.5C 171.482,114.168 159.482,114.501 147.5,115.5C 151.858,121.518 156.191,127.518 160.5,133.5C 158.873,135.63 157.04,137.63 155,139.5C 154.667,138.833 154.333,138.167 154,137.5C 144.696,145.803 135.696,154.469 127,163.5C 127.667,160.833 128.333,158.167 129,155.5C 125.631,159.037 122.131,162.371 118.5,165.5C 119.115,159.065 116.781,154.065 111.5,150.5C 116.3,142.184 122.467,134.851 130,128.5C 132.026,119.292 137.526,114.292 146.5,113.5 Z"/></g>
<g><path style="opacity:1" fill="#20a363" d="M 26.5,113.5 C 39.1667,113.5 51.8333,113.5 64.5,113.5C 65.1667,113.5 65.8333,113.5 66.5,113.5C 66.5,113.833 66.5,114.167 66.5,114.5C 75.693,127.565 85.3597,140.232 95.5,152.5C 95.5,152.833 95.5,153.167 95.5,153.5C 88.9816,162.713 90.9816,169.88 101.5,175C 105.026,175.69 108.36,175.19 111.5,173.5C 114.915,177.576 117.915,181.909 120.5,186.5C 105.976,181.309 92.3096,182.975 79.5,191.5C 70.4078,189.422 61.7411,190.422 53.5,194.5C 53.2648,193.903 52.7648,193.57 52,193.5C 43.8118,196.839 35.3118,198.839 26.5,199.5C 26.5,170.833 26.5,142.167 26.5,113.5 Z"/></g>
<g><path style="opacity:1" fill="#239959" d="M 160.5,133.5 C 167.882,141.894 174.548,150.894 180.5,160.5C 178.517,162.984 176.35,165.317 174,167.5C 174.615,165.244 174.948,162.911 175,160.5C 164.661,170.401 154.495,180.401 144.5,190.5C 139.77,190.283 135.103,190.617 130.5,191.5C 127.167,189.833 123.833,188.167 120.5,186.5C 117.915,181.909 114.915,177.576 111.5,173.5C 114.579,171.425 116.912,168.758 118.5,165.5C 122.131,162.371 125.631,159.037 129,155.5C 128.333,158.167 127.667,160.833 127,163.5C 135.696,154.469 144.696,145.803 154,137.5C 154.333,138.167 154.667,138.833 155,139.5C 157.04,137.63 158.873,135.63 160.5,133.5 Z"/></g>
<g><path style="opacity:1" fill="#f2f5f3" d="M 95.5,153.5 C 101.183,159.854 106.516,166.52 111.5,173.5C 108.36,175.19 105.026,175.69 101.5,175C 90.9816,169.88 88.9816,162.713 95.5,153.5 Z"/></g>
<g><path style="opacity:1" fill="#ebded8" d="M 111.5,150.5 C 116.781,154.065 119.115,159.065 118.5,165.5C 116.912,168.758 114.579,171.425 111.5,173.5C 106.516,166.52 101.183,159.854 95.5,153.5C 95.5,153.167 95.5,152.833 95.5,152.5C 100.335,148.14 105.669,147.473 111.5,150.5 Z"/></g>
<g><path style="opacity:1" fill="#60be90" d="M 65.5,164.5 C 75.4398,163.274 79.9398,167.607 79,177.5C 76.2325,183.172 71.7325,185.006 65.5,183C 57.6448,176.918 57.6448,170.751 65.5,164.5 Z"/></g>
<g><path style="opacity:1" fill="#62b485" d="M 135.5,164.5 C 145.823,162.992 150.323,167.325 149,177.5C 147.7,181.987 144.7,183.987 140,183.5C 131.542,182.618 128.542,177.952 131,169.5C 132.025,167.313 133.525,165.646 135.5,164.5 Z"/></g>
<g><path style="opacity:0.88" fill="#d4b011" d="M 145.5,113.5 C 145.5,112.833 145.833,112.5 146.5,112.5C 159.167,112.5 171.833,112.5 184.5,112.5C 184.832,157.003 184.499,201.336 183.5,245.5C 183.5,201.833 183.5,158.167 183.5,114.5C 171.345,113.505 159.011,113.171 146.5,113.5C 146.167,113.5 145.833,113.5 145.5,113.5 Z"/></g>
<g><path style="opacity:1" fill="#f5f5f5" d="M 120.5,186.5 C 123.833,188.167 127.167,189.833 130.5,191.5C 135.112,196.517 136.778,202.517 135.5,209.5C 115.167,209.5 94.8333,209.5 74.5,209.5C 74.5,206.167 74.5,202.833 74.5,199.5C 75.3485,196.319 77.0152,193.652 79.5,191.5C 92.3096,182.975 105.976,181.309 120.5,186.5 Z"/></g>
<g><path style="opacity:1" fill="#5ebd8f" d="M 79.5,191.5 C 77.0152,193.652 75.3485,196.319 74.5,199.5C 73.5184,202.962 73.185,206.629 73.5,210.5C 64.8333,210.5 56.1667,210.5 47.5,210.5C 46.0103,203.653 48.0103,198.32 53.5,194.5C 61.7411,190.422 70.4078,189.422 79.5,191.5 Z"/></g>
<g><path style="opacity:1" fill="#5bb989" d="M 144.5,190.5 C 147.237,191.031 149.904,191.864 152.5,193C 160.593,196.01 163.926,201.843 162.5,210.5C 153.5,210.5 144.5,210.5 135.5,210.5C 135.5,210.167 135.5,209.833 135.5,209.5C 136.778,202.517 135.112,196.517 130.5,191.5C 135.103,190.617 139.77,190.283 144.5,190.5 Z"/></g>
<g><path style="opacity:1" fill="#c3e3d4" d="M 74.5,199.5 C 74.5,202.833 74.5,206.167 74.5,209.5C 94.8333,209.5 115.167,209.5 135.5,209.5C 135.5,209.833 135.5,210.167 135.5,210.5C 114.833,210.5 94.1667,210.5 73.5,210.5C 73.185,206.629 73.5184,202.962 74.5,199.5 Z"/></g>
<g><path style="opacity:1" fill="#f4b70d" d="M 25.5,162.5 C 25.5,190.167 25.5,217.833 25.5,245.5C 57.8333,245.5 90.1667,245.5 122.5,245.5C 135.5,245.5 148.5,245.5 161.5,245.5C 161.833,245.5 162.167,245.5 162.5,245.5C 162.5,245.833 162.5,246.167 162.5,246.5C 149.496,246.333 136.496,246.5 123.5,247C 128.419,251.749 133.086,256.583 137.5,261.5C 97.4986,261.667 57.4986,261.5 17.5,261C 13.0064,259.129 10.0064,255.962 8.5,251.5C 7.59603,250.791 7.26269,249.791 7.5,248.5C 8.49799,220.338 8.83132,192.005 8.5,163.5C 14.2124,163.687 19.8791,163.354 25.5,162.5 Z"/></g>
<g><path style="opacity:1" fill="#f1eeea" d="M 161.5,245.5 C 148.5,245.5 135.5,245.5 122.5,245.5C 122.5,245.167 122.5,244.833 122.5,244.5C 122.5,241.833 122.5,239.167 122.5,236.5C 135.5,236.5 148.5,236.5 161.5,236.5C 161.5,239.5 161.5,242.5 161.5,245.5 Z"/></g>
<g><path style="opacity:1" fill="#72ad48" d="M 26.5,113.5 C 26.5,142.167 26.5,170.833 26.5,199.5C 26.5,214.5 26.5,229.5 26.5,244.5C 58.5,244.5 90.5,244.5 122.5,244.5C 122.5,244.833 122.5,245.167 122.5,245.5C 90.1667,245.5 57.8333,245.5 25.5,245.5C 25.5,217.833 25.5,190.167 25.5,162.5C 25.1702,145.991 25.5036,129.658 26.5,113.5 Z"/></g>
<g><path style="opacity:1" fill="#eea803" d="M 162.5,246.5 C 167.894,250.892 172.561,255.892 176.5,261.5C 163.5,261.5 150.5,261.5 137.5,261.5C 133.086,256.583 128.419,251.749 123.5,247C 136.496,246.5 149.496,246.333 162.5,246.5 Z"/></g>
<g><path style="opacity:0.693" fill="#ea9e08" d="M 201.5,248.5 C 201.991,256.029 198.658,260.862 191.5,263C 133.833,263.667 76.1667,263.667 18.5,263C 12.4435,261.449 9.11017,257.615 8.5,251.5C 10.0064,255.962 13.0064,259.129 17.5,261C 57.4986,261.5 97.4986,261.667 137.5,261.5C 150.5,261.5 163.5,261.5 176.5,261.5C 182.621,261.91 188.621,261.41 194.5,260C 198.513,257.132 200.847,253.298 201.5,248.5 Z"/></g>
</svg>
